<?xml version="1.0" encoding="utf-8"?>
<!-- Generator: Adobe Illustrator 18.0.0, SVG Export Plug-In . SVG Version: 6.00 Build 0)  -->
<!DOCTYPE svg PUBLIC "-//W3C//DTD SVG 1.1//EN" "http://www.w3.org/Graphics/SVG/1.1/DTD/svg11.dtd">
<svg version="1.1" id="Layer_1" xmlns="http://www.w3.org/2000/svg" xmlns:xlink="http://www.w3.org/1999/xlink" x="0px" y="0px"
	 viewBox="0 0 348 301.4" enable-background="new 0 0 348 301.4" xml:space="preserve">
<g>
	<polygon class="alb-two" points="231.5,235.9 116.5,235.9 89.1,283.4 89.1,283.4 89.1,283.4 70.5,283.4 164.7,120.3 164.7,120.3 164.7,120.3
		154.3,102.3 154.3,102.3 39.4,301.4 99.5,301.4 99.5,301.4 99.5,301.4 99.5,301.4 126.9,253.9 221.1,253.9 248.5,301.4
		269.3,301.4 	"/>
	<path class="alb-three" d="M222.2,219.8L174,136.4l-48.2,83.5H222.2z M191,201.8h-34l17-29.5L191,201.8z"/>
	<polygon class="alb-one" points="174,0 163.6,18 316.9,283.4 298.3,283.4 154.3,34.1 0,301.4 20.8,301.4 20.8,301.4 20.8,301.4 154.6,69.6
		287.9,301.4 348,301.4 	"/>
	<polygon points="173.9,-0.3 174,0 174.2,-0.3 	"/>
</g>
</svg>
